<mxfile host="app.diagrams.net" modified="2024-02-28T04:57:52.966Z" agent="Mozilla/5.0 (Windows NT 10.0; Win64; x64) AppleWebKit/537.36 (KHTML, like Gecko) Chrome/122.0.0.0 Safari/537.36" version="22.1.16" etag="JqKupchlyznM0LZUO68O" type="github">
  <diagram name="Page-1" id="Bmkcs_xnIratHQ7mKmkk">
    <mxGraphModel>
      <root>
        <mxCell id="0" />
        <mxCell id="1" parent="0" />
      </root>
    </mxGraphModel>
  </diagram>
</mxfile>
